<svg xmlns="http://www.w3.org/2000/svg" xmlns:xlink="http://www.w3.org/1999/xlink" width="500" zoomAndPan="magnify" viewBox="0 0 375 374.999991" height="500" preserveAspectRatio="xMidYMid meet" version="1.0"><defs><clipPath id="813b64d516"><path d="M 55 58.785156 L 351.773438 58.785156 L 351.773438 316 L 55 316 Z M 55 58.785156 " clip-rule="nonzero"/></clipPath></defs><g clip-path="url(#813b64d516)"><path fill="#000000" d="M 254.570312 91.394531 C 234.078125 76.367188 209.628906 68.417969 184.195312 68.417969 C 90.859375 68.417969 35.167969 170.484375 82.023438 248.507812 C 83.371094 250.757812 82.636719 253.675781 80.382812 255.023438 C 78.128906 256.371094 75.210938 255.636719 73.863281 253.386719 C 23.25 169.097656 83.371094 58.886719 184.195312 58.886719 C 210.933594 58.886719 236.878906 67.148438 258.65625 82.625 L 256.488281 75.042969 C 255.769531 72.511719 257.238281 69.878906 259.769531 69.160156 C 262.296875 68.441406 264.933594 69.90625 265.652344 72.4375 L 271.921875 94.386719 C 272.8125 97.515625 270.371094 100.558594 267.171875 100.449219 L 244.675781 101.253906 C 242.054688 101.347656 239.851562 99.296875 239.757812 96.675781 C 239.667969 94.054688 241.71875 91.855469 244.34375 91.761719 Z M 327.238281 86.910156 C 326.5625 89.449219 323.949219 90.957031 321.410156 90.28125 C 318.867188 89.601562 317.359375 86.992188 318.039062 84.453125 L 319.929688 77.40625 C 320.609375 74.867188 323.21875 73.359375 325.757812 74.039062 C 328.300781 74.714844 329.808594 77.324219 329.128906 79.863281 Z M 339.945312 101.5625 C 337.671875 102.878906 334.761719 102.105469 333.445312 99.832031 C 332.128906 97.5625 332.90625 94.652344 335.179688 93.335938 L 341.5 89.6875 C 343.777344 88.375 346.6875 89.148438 348.003906 91.417969 C 349.320312 93.691406 348.542969 96.601562 346.269531 97.914062 Z M 347.714844 113.652344 C 350.253906 114.332031 351.765625 116.9375 351.085938 119.476562 C 350.40625 122.015625 347.796875 123.523438 345.253906 122.847656 L 338.203125 120.957031 C 335.660156 120.28125 334.152344 117.671875 334.828125 115.132812 C 335.507812 112.59375 338.121094 111.085938 340.660156 111.765625 Z M 262.957031 120.019531 L 247.019531 129.214844 C 238.675781 134.027344 235.792969 144.78125 240.609375 153.117188 C 245.425781 161.449219 256.1875 164.332031 264.53125 159.519531 L 280.464844 150.328125 Z M 269.855469 112.902344 L 289.867188 147.535156 C 297.980469 145.691406 306.199219 145.152344 314.324219 145.140625 L 283.832031 92.371094 C 279.734375 99.347656 275.21875 106.570312 269.855469 112.902344 Z M 289.339844 82.886719 L 325.449219 145.382812 C 325.992188 145.40625 326.535156 145.425781 327.078125 145.449219 C 331.277344 145.621094 334.003906 141.121094 331.902344 137.484375 L 321.140625 118.859375 L 321.578125 118.609375 C 326.527344 115.753906 328.226562 109.433594 325.367188 104.488281 C 322.507812 99.542969 316.179688 97.847656 311.230469 100.703125 L 310.792969 100.957031 L 299.460938 81.339844 C 297.433594 77.828125 292.351562 77.800781 290.28125 81.289062 C 289.96875 81.816406 289.652344 82.347656 289.339844 82.886719 Z M 296.445312 177.980469 L 293.527344 179.664062 C 288.9375 182.3125 283.03125 180.730469 280.382812 176.144531 L 273.984375 165.070312 L 284.519531 158.992188 C 284.78125 158.898438 285.046875 158.808594 285.3125 158.714844 Z M 145.867188 184.152344 L 170.480469 165.003906 L 194.710938 172.851562 C 196.46875 173.414062 198.316406 172.902344 199.535156 171.675781 L 218.03125 153.039062 C 218.792969 154.035156 219.941406 154.726562 221.285156 154.875 C 223.898438 155.164062 226.25 153.277344 226.539062 150.667969 L 227.472656 142.324219 C 227.996094 139.285156 225.476562 136.5 222.363281 136.765625 L 213.703125 137.527344 C 211.078125 137.75 209.136719 140.058594 209.363281 142.679688 C 209.488281 144.160156 210.28125 145.425781 211.421875 146.203125 L 194.847656 162.90625 L 171.003906 155.191406 C 169.558594 154.726562 167.914062 154.964844 166.628906 155.96875 L 140.019531 176.671875 C 137.949219 178.285156 137.582031 181.269531 139.199219 183.335938 C 140.8125 185.402344 143.796875 185.769531 145.867188 184.152344 Z M 138.757812 197.511719 C 137.113281 197.511719 135.777344 198.851562 135.777344 200.492188 L 135.777344 222.511719 C 135.777344 224.152344 137.113281 225.488281 138.757812 225.488281 L 147.128906 225.488281 C 148.769531 225.488281 150.109375 224.152344 150.109375 222.511719 L 150.109375 200.492188 C 150.109375 198.851562 148.769531 197.511719 147.128906 197.511719 Z M 218.589844 166.957031 C 216.945312 166.957031 215.609375 168.292969 215.609375 169.933594 L 215.609375 222.511719 C 215.609375 224.152344 216.945312 225.488281 218.589844 225.488281 L 226.960938 225.488281 C 228.601562 225.488281 229.941406 224.152344 229.941406 222.511719 L 229.941406 169.933594 C 229.941406 168.292969 228.601562 166.957031 226.960938 166.957031 Z M 191.976562 185.75 C 190.335938 185.75 188.996094 187.089844 188.996094 188.730469 C 188.996094 202.238281 188.996094 209 188.996094 222.511719 C 188.996094 224.148438 190.335938 225.488281 191.976562 225.488281 C 194.769531 225.488281 197.558594 225.488281 200.347656 225.488281 C 201.992188 225.488281 203.328125 224.148438 203.328125 222.511719 C 203.328125 209 203.328125 202.238281 203.328125 188.730469 C 203.328125 187.089844 201.992188 185.75 200.347656 185.75 C 197.558594 185.75 194.769531 185.75 191.976562 185.75 Z M 165.367188 179.785156 C 163.726562 179.785156 162.386719 181.121094 162.386719 182.761719 L 162.386719 222.511719 C 162.386719 224.152344 163.726562 225.488281 165.367188 225.488281 L 173.738281 225.488281 C 175.378906 225.488281 176.71875 224.152344 176.71875 222.511719 L 176.71875 182.761719 C 176.71875 181.121094 175.378906 179.785156 173.738281 179.785156 Z M 204.230469 103.511719 L 197.8125 86.851562 L 170.582031 86.851562 L 164.164062 103.511719 C 155.277344 105.625 146.796875 109.144531 139.019531 113.925781 L 122.679688 106.675781 L 103.425781 125.917969 L 110.679688 142.242188 C 105.894531 150.011719 102.371094 158.488281 100.257812 167.367188 L 83.585938 173.777344 L 83.585938 200.988281 L 100.253906 207.398438 C 102.367188 216.277344 105.890625 224.757812 110.679688 232.527344 L 103.425781 248.847656 L 122.683594 268.085938 L 139.019531 260.835938 C 146.796875 265.621094 155.28125 269.140625 164.164062 271.25 L 170.582031 287.910156 L 197.8125 287.910156 L 204.230469 271.253906 C 213.117188 269.144531 221.601562 265.625 229.378906 260.839844 L 245.714844 268.085938 L 264.96875 248.84375 L 257.710938 232.519531 C 262.5 224.75 266.023438 216.273438 268.136719 207.398438 L 284.808594 200.984375 L 284.808594 190.058594 C 279.652344 188.980469 274.953125 185.804688 272.121094 180.90625 L 265.566406 169.558594 C 262.019531 170.933594 258.300781 171.507812 254.640625 171.34375 C 255.8125 176.5 256.433594 181.867188 256.433594 187.382812 C 256.433594 227.246094 224.09375 259.554688 184.195312 259.554688 C 144.300781 259.554688 111.960938 227.246094 111.960938 187.382812 C 111.960938 147.515625 144.300781 115.207031 184.195312 115.207031 C 202.238281 115.207031 218.734375 121.8125 231.390625 132.738281 C 233.660156 127.953125 237.34375 123.789062 242.25 120.960938 L 253.507812 114.464844 L 245.710938 106.675781 L 229.375 113.925781 C 221.597656 109.144531 213.113281 105.625 204.230469 103.511719 Z M 111.902344 299.722656 L 109.738281 292.140625 C 131.519531 307.621094 157.453125 315.875 184.195312 315.875 C 268.960938 315.875 329.78125 235.617188 308.613281 154.78125 C 305.382812 154.910156 302.160156 155.160156 298.96875 155.585938 C 319.761719 230.722656 263.355469 306.347656 184.195312 306.347656 C 158.777344 306.347656 134.324219 298.390625 113.839844 283.367188 L 124.050781 283 C 126.675781 282.910156 128.726562 280.707031 128.636719 278.085938 C 128.542969 275.464844 126.339844 273.417969 123.71875 273.507812 L 101.222656 274.316406 C 98.023438 274.203125 95.582031 277.25 96.472656 280.378906 L 102.738281 302.328125 C 103.460938 304.855469 106.097656 306.324219 108.625 305.605469 C 111.15625 304.886719 112.625 302.25 111.902344 299.722656 Z M 111.902344 299.722656 " fill-opacity="1" fill-rule="evenodd"/></g></svg>