<svg xmlns="http://www.w3.org/2000/svg" xmlns:xlink="http://www.w3.org/1999/xlink" width="500" zoomAndPan="magnify" viewBox="0 0 375 374.999991" height="500" preserveAspectRatio="xMidYMid meet" version="1.0"><defs><clipPath id="6f079e807b"><path d="M 33.644531 31.5 L 341.144531 31.5 L 341.144531 341 L 33.644531 341 Z M 33.644531 31.5 " clip-rule="nonzero"/></clipPath></defs><g clip-path="url(#6f079e807b)"><path fill="#000000" d="M 204.828125 194.191406 L 191.859375 194.191406 C 190.089844 194.191406 188.644531 195.636719 188.644531 197.410156 L 188.644531 253.296875 C 188.644531 255.070312 190.089844 256.515625 191.859375 256.515625 L 204.828125 256.515625 C 206.601562 256.515625 208.046875 255.070312 208.046875 253.296875 L 208.046875 197.410156 C 208.046875 195.636719 206.601562 194.191406 204.828125 194.191406 Z M 295.800781 249.800781 C 320.84375 249.800781 341.144531 270.113281 341.144531 295.171875 C 341.144531 320.230469 320.84375 340.546875 295.800781 340.546875 C 270.757812 340.546875 250.457031 320.230469 250.457031 295.171875 C 250.457031 270.113281 270.757812 249.800781 295.800781 249.800781 Z M 313.894531 279.398438 C 311.324219 273.269531 306.425781 269.726562 301.042969 268.363281 L 300.949219 268.339844 L 300.949219 266.460938 C 300.949219 263.617188 298.644531 261.3125 295.800781 261.3125 C 292.960938 261.3125 290.65625 263.617188 290.65625 266.460938 L 290.65625 268.410156 C 283.007812 270.375 277.242188 276.488281 277.640625 284.742188 C 278.117188 294.546875 286.445312 298.671875 295.019531 300.078125 C 298.84375 300.707031 305.101562 302.023438 305.21875 306.957031 C 305.3125 310.96875 299.332031 312.265625 296.273438 312.335938 C 292.0625 312.4375 287.351562 310.613281 286.242188 306.148438 C 285.5625 303.394531 282.78125 301.710938 280.027344 302.386719 C 277.277344 303.066406 275.59375 305.847656 276.269531 308.605469 C 278.046875 315.730469 283.671875 320.433594 290.65625 322.015625 L 290.65625 323.882812 C 290.65625 326.726562 292.960938 329.035156 295.800781 329.035156 C 298.644531 329.035156 300.949219 326.726562 300.949219 323.882812 L 300.949219 322.121094 C 308.761719 320.5625 315.679688 315.398438 315.472656 306.714844 C 315.214844 295.851562 306.113281 291.492188 296.667969 289.9375 C 293.519531 289.421875 288.085938 288.257812 287.894531 284.257812 C 287.726562 280.8125 290.714844 278.832031 293.746094 278.21875 C 298.109375 277.339844 302.609375 279.097656 304.40625 283.378906 C 305.503906 286 308.519531 287.234375 311.140625 286.136719 C 313.761719 285.035156 314.996094 282.019531 313.894531 279.398438 Z M 240.996094 75.875 C 238.363281 74.808594 237.09375 71.808594 238.160156 69.175781 C 239.226562 66.542969 242.222656 65.273438 244.855469 66.339844 C 270.960938 77.003906 293.160156 95.285156 308.699219 118.425781 C 332.148438 153.351562 338.65625 196.9375 326.800781 237.039062 C 326 239.761719 323.148438 241.320312 320.429688 240.519531 C 317.707031 239.71875 316.152344 236.863281 316.949219 234.144531 C 327.925781 197.015625 321.867188 156.449219 300.175781 124.140625 C 285.78125 102.703125 265.203125 85.765625 240.996094 75.875 Z M 235.132812 320.308594 C 237.808594 319.363281 240.742188 320.769531 241.6875 323.445312 C 242.632812 326.125 241.226562 329.058594 238.550781 330.003906 C 200.492188 343.445312 158.058594 339.890625 122.71875 320.03125 C 101.609375 308.167969 83.855469 291.015625 71.257812 270.367188 C 69.78125 267.945312 70.546875 264.785156 72.964844 263.304688 C 75.386719 261.828125 78.542969 262.59375 80.023438 265.015625 C 91.699219 284.152344 108.160156 300.054688 127.746094 311.058594 C 160.445312 329.433594 199.894531 332.753906 235.132812 320.308594 Z M 73.875 140.222656 C 72.644531 142.777344 69.574219 143.851562 67.019531 142.617188 C 64.46875 141.382812 63.394531 138.3125 64.628906 135.757812 C 69.597656 125.449219 75.773438 115.851562 82.964844 107.148438 C 90.195312 98.402344 98.484375 90.527344 107.644531 83.714844 C 109.921875 82.027344 113.132812 82.503906 114.820312 84.78125 C 116.507812 87.058594 116.03125 90.273438 113.753906 91.960938 C 105.308594 98.246094 97.625 105.550781 90.886719 113.703125 C 84.199219 121.800781 78.46875 130.695312 73.875 140.222656 Z M 79.699219 155.558594 C 105.136719 155.558594 125.757812 176.191406 125.757812 201.644531 C 125.757812 227.097656 105.136719 247.734375 79.699219 247.734375 C 54.265625 247.734375 33.644531 227.097656 33.644531 201.644531 C 33.644531 176.195312 54.265625 155.558594 79.699219 155.558594 Z M 101.992188 172.058594 L 99.183594 174.871094 C 97.171875 176.882812 97.171875 180.140625 99.183594 182.152344 C 101.191406 184.164062 104.449219 184.164062 106.457031 182.152344 L 109.269531 179.339844 C 111.277344 177.328125 111.277344 174.070312 109.269531 172.058594 C 107.257812 170.046875 104.003906 170.046875 101.992188 172.058594 Z M 74.554688 184.210938 L 74.554688 201.644531 C 74.554688 203.683594 75.738281 205.441406 77.453125 206.277344 L 88.761719 212.8125 C 91.214844 214.234375 94.355469 213.398438 95.777344 210.941406 C 97.199219 208.488281 96.363281 205.34375 93.910156 203.921875 L 84.847656 198.6875 L 84.847656 184.210938 C 84.847656 181.367188 82.542969 179.058594 79.699219 179.058594 C 76.859375 179.058594 74.554688 181.367188 74.554688 184.210938 Z M 116.371094 196.496094 L 112.398438 196.496094 C 109.554688 196.496094 107.25 198.800781 107.25 201.644531 C 107.25 204.488281 109.554688 206.796875 112.398438 206.796875 L 116.371094 206.796875 C 119.214844 206.796875 121.519531 204.488281 121.519531 201.644531 C 121.515625 198.800781 119.214844 196.496094 116.371094 196.496094 Z M 109.269531 223.949219 L 106.457031 221.136719 C 104.449219 219.128906 101.191406 219.128906 99.183594 221.136719 C 97.171875 223.148438 97.171875 226.410156 99.183594 228.421875 L 101.992188 231.234375 C 104.003906 233.242188 107.261719 233.242188 109.269531 231.234375 C 111.277344 229.222656 111.277344 225.960938 109.269531 223.949219 Z M 84.847656 238.339844 L 84.847656 234.363281 C 84.847656 231.519531 82.542969 229.210938 79.699219 229.210938 C 76.859375 229.210938 74.554688 231.519531 74.554688 234.363281 L 74.554688 238.339844 C 74.554688 241.183594 76.859375 243.488281 79.699219 243.488281 C 82.542969 243.488281 84.847656 241.183594 84.847656 238.339844 Z M 57.410156 231.234375 L 60.222656 228.421875 C 62.230469 226.410156 62.230469 223.148438 60.222656 221.140625 C 58.210938 219.128906 54.953125 219.128906 52.945312 221.140625 L 50.132812 223.953125 C 48.125 225.960938 48.125 229.222656 50.132812 231.234375 C 52.144531 233.246094 55.402344 233.246094 57.410156 231.234375 Z M 43.03125 206.796875 L 47.007812 206.796875 C 49.847656 206.796875 52.152344 204.488281 52.152344 201.644531 C 52.152344 198.800781 49.847656 196.496094 47.007812 196.496094 L 43.03125 196.496094 C 40.1875 196.496094 37.886719 198.800781 37.886719 201.644531 C 37.886719 204.488281 40.1875 206.796875 43.03125 206.796875 Z M 50.132812 179.339844 L 52.945312 182.152344 C 54.953125 184.164062 58.210938 184.164062 60.222656 182.152344 C 62.230469 180.140625 62.230469 176.882812 60.222656 174.871094 L 57.410156 172.058594 C 55.402344 170.046875 52.144531 170.046875 50.132812 172.058594 C 48.125 174.070312 48.125 177.328125 50.132812 179.339844 Z M 74.554688 164.953125 L 74.554688 168.929688 C 74.554688 171.773438 76.859375 174.078125 79.699219 174.078125 C 82.542969 174.078125 84.847656 171.773438 84.847656 168.929688 L 84.847656 164.953125 C 84.847656 162.109375 82.542969 159.800781 79.699219 159.800781 C 76.859375 159.800781 74.554688 162.109375 74.554688 164.953125 Z M 187.316406 39.167969 C 191.367188 40.132812 195.238281 41.738281 198.785156 43.921875 L 205.023438 41.148438 C 205.769531 40.820312 206.597656 40.972656 207.171875 41.550781 L 214.078125 48.460938 C 214.65625 49.039062 214.808594 49.867188 214.476562 50.609375 L 211.707031 56.851562 C 213.890625 60.402344 215.5 64.273438 216.460938 68.328125 L 222.828125 70.78125 C 223.585938 71.074219 224.0625 71.769531 224.0625 72.582031 L 224.0625 82.359375 C 224.0625 83.171875 223.585938 83.867188 222.828125 84.160156 L 216.460938 86.613281 C 215.496094 90.667969 213.890625 94.539062 211.707031 98.085938 L 214.480469 104.328125 C 214.808594 105.074219 214.65625 105.902344 214.078125 106.480469 L 207.171875 113.390625 C 206.597656 113.96875 205.769531 114.121094 205.023438 113.789062 L 198.785156 111.019531 C 195.238281 113.203125 191.371094 114.8125 187.316406 115.777344 L 184.867188 122.144531 C 184.574219 122.90625 183.878906 123.382812 183.066406 123.382812 L 173.296875 123.382812 C 172.484375 123.382812 171.789062 122.90625 171.496094 122.144531 L 169.046875 115.773438 C 164.996094 114.808594 161.125 113.203125 157.578125 111.019531 L 151.339844 113.792969 C 150.59375 114.121094 149.765625 113.96875 149.191406 113.390625 L 142.28125 106.480469 C 141.707031 105.902344 141.554688 105.074219 141.882812 104.332031 L 144.65625 98.089844 C 142.46875 94.539062 140.863281 90.667969 139.898438 86.613281 L 133.535156 84.160156 C 132.773438 83.867188 132.296875 83.171875 132.296875 82.359375 L 132.296875 72.582031 C 132.296875 71.769531 132.773438 71.074219 133.535156 70.78125 L 139.902344 68.328125 C 140.867188 64.273438 142.472656 60.402344 144.65625 56.855469 L 141.882812 50.609375 C 141.554688 49.867188 141.707031 49.039062 142.28125 48.460938 L 149.191406 41.550781 C 149.765625 40.972656 150.59375 40.820312 151.339844 41.148438 L 157.578125 43.921875 C 161.125 41.738281 164.992188 40.128906 169.042969 39.167969 L 171.496094 32.796875 C 171.789062 32.035156 172.484375 31.558594 173.296875 31.558594 L 183.066406 31.558594 C 183.878906 31.558594 184.574219 32.035156 184.867188 32.796875 Z M 178.179688 55.796875 C 166.21875 55.796875 156.523438 65.5 156.523438 77.472656 C 156.523438 89.441406 166.21875 99.144531 178.179688 99.144531 C 190.144531 99.144531 199.839844 89.441406 199.839844 77.472656 C 199.839844 65.5 190.144531 55.796875 178.179688 55.796875 Z M 161.226562 193.445312 C 158.640625 194.613281 155.597656 193.457031 154.433594 190.871094 C 153.265625 188.28125 154.417969 185.238281 157.007812 184.070312 C 168.855469 178.730469 180.722656 172.761719 192.492188 166.078125 C 200.203125 161.695312 207.894531 157 215.53125 151.960938 L 214.742188 151.90625 C 211.910156 151.714844 209.769531 149.265625 209.957031 146.433594 C 210.144531 143.601562 212.59375 141.457031 215.425781 141.644531 L 230.925781 142.71875 C 234.320312 142.945312 236.546875 146.394531 235.429688 149.5625 L 231.417969 164.191406 C 230.675781 166.921875 227.855469 168.535156 225.125 167.792969 C 222.394531 167.046875 220.78125 164.226562 221.527344 161.496094 L 221.925781 160.039062 C 213.851562 165.394531 205.71875 170.375 197.554688 175.011719 C 185.429688 181.902344 173.285156 188.015625 161.226562 193.445312 Z M 227.882812 179.378906 C 226.113281 179.378906 224.667969 180.828125 224.667969 182.597656 L 224.667969 253.296875 C 224.667969 255.070312 226.113281 256.515625 227.882812 256.515625 L 240.851562 256.515625 C 242.625 256.515625 244.070312 255.070312 244.070312 253.296875 L 244.070312 182.597656 C 244.070312 180.824219 242.625 179.378906 240.851562 179.378906 Z M 168.804688 210.65625 C 164.480469 210.65625 160.15625 210.65625 155.835938 210.65625 C 154.0625 210.65625 152.617188 212.101562 152.617188 213.875 C 152.617188 227.769531 152.617188 239.402344 152.617188 253.296875 C 152.617188 255.070312 154.0625 256.515625 155.835938 256.515625 C 160.15625 256.515625 164.480469 256.515625 168.804688 256.515625 C 170.574219 256.515625 172.019531 255.070312 172.019531 253.296875 C 172.019531 239.402344 172.019531 227.769531 172.019531 213.875 C 172.019531 212.101562 170.574219 210.65625 168.804688 210.65625 Z M 168.804688 210.65625 " fill-opacity="1" fill-rule="evenodd"/></g></svg>