<svg xmlns="http://www.w3.org/2000/svg" xmlns:xlink="http://www.w3.org/1999/xlink" width="500" zoomAndPan="magnify" viewBox="0 0 375 374.999991" height="500" preserveAspectRatio="xMidYMid meet" version="1.0"><defs><clipPath id="2c970145b3"><path d="M 38 38 L 349.5 38 L 349.5 349.5 L 38 349.5 Z M 38 38 " clip-rule="nonzero"/></clipPath><clipPath id="1299495f7d"><path d="M 228 250 L 349.5 250 L 349.5 349.5 L 228 349.5 Z M 228 250 " clip-rule="nonzero"/></clipPath><clipPath id="581bf821ed"><path d="M 25.5 25.5 L 131 25.5 L 131 131 L 25.5 131 Z M 25.5 25.5 " clip-rule="nonzero"/></clipPath></defs><g clip-path="url(#2c970145b3)"><path fill="#000000" d="M 194.019531 349.5 C 152.488281 349.5 113.445312 333.328125 84.078125 303.960938 C 54.710938 274.59375 38.539062 235.550781 38.539062 194.019531 C 38.539062 164.824219 46.679688 136.367188 62.078125 111.726562 L 69.863281 116.59375 C 55.378906 139.773438 47.722656 166.546875 47.722656 194.019531 C 47.722656 274.6875 113.351562 340.316406 194.019531 340.316406 C 206.929688 340.316406 219.738281 338.636719 232.085938 335.316406 L 234.46875 344.183594 C 221.34375 347.710938 207.734375 349.5 194.019531 349.5 Z M 336.339844 256.71875 L 327.9375 253.011719 C 336.152344 234.394531 340.316406 214.542969 340.316406 194.019531 C 340.316406 113.351562 274.6875 47.722656 194.019531 47.722656 C 166.550781 47.722656 139.777344 55.375 116.601562 69.859375 L 111.734375 62.074219 C 136.371094 46.675781 164.828125 38.539062 194.019531 38.539062 C 235.550781 38.539062 274.59375 54.710938 303.960938 84.078125 C 333.328125 113.445312 349.5 152.488281 349.5 194.019531 C 349.5 215.828125 345.070312 236.921875 336.339844 256.71875 Z M 336.339844 256.71875 " fill-opacity="1" fill-rule="nonzero"/></g><g clip-path="url(#1299495f7d)"><path fill="#000000" d="M 344.910156 349.5 L 233.277344 349.5 C 230.742188 349.5 228.6875 347.445312 228.6875 344.910156 L 228.6875 291.496094 C 228.6875 288.960938 230.742188 286.902344 233.277344 286.902344 L 261.1875 286.902344 L 261.1875 296.085938 L 237.871094 296.085938 L 237.871094 340.316406 L 312.410156 340.316406 L 312.410156 254.867188 C 312.410156 252.332031 314.464844 250.273438 317 250.273438 L 344.910156 250.273438 C 347.445312 250.273438 349.5 252.332031 349.5 254.867188 L 349.5 344.910156 C 349.5 347.445312 347.445312 349.5 344.910156 349.5 Z M 321.59375 340.316406 L 340.316406 340.316406 L 340.316406 259.457031 L 321.59375 259.457031 Z M 321.59375 340.316406 " fill-opacity="1" fill-rule="nonzero"/></g><path fill="#000000" d="M 289.09375 278 L 317 278 L 317 287.183594 L 289.09375 287.183594 Z M 289.09375 278 " fill-opacity="1" fill-rule="nonzero"/><path fill="#000000" d="M 293.683594 344.910156 L 284.503906 344.910156 L 284.503906 272.882812 L 265.777344 272.882812 L 265.777344 344.910156 L 256.59375 344.910156 L 256.59375 268.292969 C 256.59375 265.753906 258.652344 263.699219 261.1875 263.699219 L 289.09375 263.699219 C 291.628906 263.699219 293.683594 265.753906 293.683594 268.292969 Z M 293.683594 344.910156 " fill-opacity="1" fill-rule="nonzero"/><path fill="#000000" d="M 194.019531 258.375 C 176.828125 258.375 160.667969 251.679688 148.515625 239.523438 C 136.359375 227.371094 129.664062 211.210938 129.664062 194.019531 C 129.664062 176.832031 136.359375 160.667969 148.515625 148.515625 C 160.667969 136.359375 176.828125 129.664062 194.019531 129.664062 C 211.210938 129.664062 227.371094 136.359375 239.523438 148.515625 C 251.679688 160.667969 258.371094 176.832031 258.371094 194.019531 C 258.371094 211.210938 251.679688 227.371094 239.523438 239.523438 C 227.371094 251.679688 211.210938 258.375 194.019531 258.375 Z M 194.019531 138.847656 C 179.28125 138.847656 165.425781 144.585938 155.007812 155.007812 C 144.585938 165.429688 138.847656 179.28125 138.847656 194.019531 C 138.847656 208.757812 144.585938 222.609375 155.007812 233.03125 C 165.425781 243.453125 179.28125 249.191406 194.019531 249.191406 C 208.757812 249.191406 222.613281 243.453125 233.03125 233.03125 C 243.453125 222.609375 249.191406 208.753906 249.191406 194.019531 C 249.191406 179.28125 243.453125 165.425781 233.03125 155.007812 C 222.613281 144.585938 208.757812 138.847656 194.019531 138.847656 Z M 194.019531 138.847656 " fill-opacity="1" fill-rule="nonzero"/><g clip-path="url(#581bf821ed)"><path fill="#000000" d="M 82.585938 130.128906 L 73.042969 130.128906 C 68.78125 130.128906 65.316406 126.660156 65.316406 122.402344 C 65.316406 118.699219 62.496094 117.242188 61.628906 116.886719 C 60.765625 116.527344 57.742188 115.5625 55.125 118.179688 C 52.113281 121.191406 47.210938 121.191406 44.195312 118.179688 L 37.449219 111.429688 C 34.433594 108.417969 34.433594 103.519531 37.449219 100.503906 C 40.058594 97.894531 39.09375 94.867188 38.734375 94 C 38.375 93.136719 36.917969 90.3125 33.226562 90.3125 C 28.964844 90.3125 25.5 86.847656 25.5 82.585938 L 25.5 73.042969 C 25.5 68.78125 28.964844 65.316406 33.226562 65.316406 C 36.917969 65.316406 38.375 62.492188 38.734375 61.628906 C 39.09375 60.761719 40.058594 57.734375 37.449219 55.125 C 34.433594 52.109375 34.433594 47.210938 37.449219 44.195312 L 44.195312 37.449219 C 47.210938 34.4375 52.109375 34.4375 55.121094 37.449219 C 57.734375 40.058594 60.761719 39.09375 61.625 38.734375 C 62.492188 38.375 65.316406 36.917969 65.316406 33.226562 C 65.316406 28.964844 68.78125 25.5 73.042969 25.5 L 82.585938 25.5 C 86.847656 25.5 90.3125 28.964844 90.3125 33.226562 C 90.3125 36.917969 93.136719 38.375 94 38.734375 C 94.867188 39.09375 97.894531 40.058594 100.503906 37.449219 C 103.519531 34.433594 108.417969 34.4375 111.429688 37.449219 L 118.179688 44.195312 C 119.640625 45.65625 120.441406 47.597656 120.441406 49.660156 C 120.441406 51.722656 119.640625 53.664062 118.179688 55.121094 C 115.570312 57.734375 116.535156 60.761719 116.894531 61.625 C 117.253906 62.492188 118.710938 65.316406 122.402344 65.316406 C 126.660156 65.316406 130.128906 68.78125 130.128906 73.039062 L 130.128906 82.585938 C 130.128906 86.84375 126.664062 90.3125 122.402344 90.3125 C 118.710938 90.3125 117.253906 93.132812 116.894531 94 C 116.535156 94.863281 115.570312 97.890625 118.179688 100.503906 C 119.640625 101.964844 120.441406 103.902344 120.441406 105.964844 C 120.441406 108.03125 119.640625 109.96875 118.179688 111.429688 L 111.429688 118.179688 C 108.417969 121.191406 103.519531 121.191406 100.503906 118.179688 C 97.894531 115.566406 94.867188 116.535156 94 116.890625 C 93.136719 117.25 90.3125 118.707031 90.3125 122.398438 C 90.3125 126.660156 86.847656 130.128906 82.585938 130.128906 Z M 74.433594 120.945312 L 81.195312 120.945312 C 81.707031 115.335938 85.167969 110.613281 90.488281 108.410156 C 95.804688 106.207031 101.59375 107.101562 105.921875 110.703125 L 110.703125 105.921875 C 107.101562 101.59375 106.207031 95.804688 108.410156 90.488281 C 110.613281 85.167969 115.335938 81.707031 120.945312 81.195312 L 120.945312 74.433594 C 115.335938 73.917969 110.613281 70.457031 108.410156 65.140625 C 106.207031 59.824219 107.097656 54.035156 110.703125 49.707031 L 105.921875 44.921875 C 101.59375 48.527344 95.804688 49.417969 90.488281 47.21875 C 85.167969 45.015625 81.707031 40.292969 81.195312 34.683594 L 74.433594 34.683594 C 73.917969 40.292969 70.457031 45.015625 65.140625 47.21875 C 59.824219 49.421875 54.035156 48.527344 49.707031 44.921875 L 44.921875 49.707031 C 48.527344 54.035156 49.421875 59.824219 47.21875 65.140625 C 45.015625 70.457031 40.292969 73.917969 34.683594 74.433594 L 34.683594 81.195312 C 40.292969 81.707031 45.015625 85.167969 47.21875 90.484375 C 49.417969 95.804688 48.527344 101.59375 44.921875 105.921875 L 49.707031 110.703125 C 54.039062 107.09375 59.828125 106.199219 65.144531 108.402344 C 70.460938 110.605469 73.921875 115.332031 74.433594 120.945312 Z M 111.6875 106.996094 L 111.695312 106.996094 Z M 77.8125 105.726562 C 62.421875 105.726562 49.902344 93.203125 49.902344 77.8125 C 49.902344 62.421875 62.421875 49.902344 77.8125 49.902344 C 93.207031 49.902344 105.726562 62.421875 105.726562 77.8125 C 105.726562 93.203125 93.203125 105.726562 77.8125 105.726562 Z M 77.8125 59.082031 C 67.484375 59.082031 59.082031 67.484375 59.082031 77.8125 C 59.082031 88.140625 67.484375 96.542969 77.8125 96.542969 C 88.140625 96.542969 96.542969 88.140625 96.542969 77.8125 C 96.542969 67.484375 88.140625 59.082031 77.8125 59.082031 Z M 77.8125 59.082031 " fill-opacity="1" fill-rule="nonzero"/></g><path fill="#000000" d="M 194.019531 98.367188 C 184.550781 98.367188 176.847656 90.664062 176.847656 81.195312 C 176.847656 71.726562 184.550781 64.027344 194.019531 64.027344 C 203.488281 64.027344 211.191406 71.726562 211.191406 81.195312 C 211.191406 90.664062 203.488281 98.367188 194.019531 98.367188 Z M 194.019531 73.207031 C 189.613281 73.207031 186.03125 76.792969 186.03125 81.195312 C 186.03125 85.601562 189.613281 89.1875 194.019531 89.1875 C 198.425781 89.1875 202.007812 85.601562 202.007812 81.195312 C 202.007812 76.792969 198.425781 73.207031 194.019531 73.207031 Z M 194.019531 73.207031 " fill-opacity="1" fill-rule="nonzero"/><path fill="#000000" d="M 268.023438 168.917969 C 266.203125 168.917969 264.480469 167.828125 263.761719 166.035156 C 252.253906 137.398438 224.878906 118.894531 194.019531 118.894531 C 192.800781 118.894531 191.632812 118.410156 190.773438 117.550781 C 189.914062 116.6875 189.429688 115.519531 189.429688 114.304688 L 189.429688 93.777344 C 189.429688 91.242188 191.484375 89.183594 194.019531 89.183594 C 196.554688 89.183594 198.609375 91.242188 198.609375 93.777344 L 198.609375 109.835938 C 214.117188 110.664062 228.953125 115.707031 241.777344 124.539062 C 255.53125 134.007812 266.078125 147.175781 272.28125 162.613281 C 273.226562 164.964844 272.085938 167.640625 269.730469 168.585938 C 269.171875 168.8125 268.59375 168.917969 268.023438 168.917969 Z M 268.023438 168.917969 " fill-opacity="1" fill-rule="nonzero"/><path fill="#000000" d="M 306.839844 211.191406 C 297.375 211.191406 289.671875 203.488281 289.671875 194.019531 C 289.671875 184.550781 297.375 176.847656 306.839844 176.847656 C 316.308594 176.847656 324.011719 184.550781 324.011719 194.019531 C 324.011719 203.488281 316.308594 211.191406 306.839844 211.191406 Z M 306.839844 186.03125 C 302.4375 186.03125 298.851562 189.613281 298.851562 194.019531 C 298.851562 198.425781 302.4375 202.007812 306.839844 202.007812 C 311.246094 202.007812 314.828125 198.425781 314.828125 194.019531 C 314.828125 189.613281 311.246094 186.03125 306.839844 186.03125 Z M 306.839844 186.03125 " fill-opacity="1" fill-rule="nonzero"/><path fill="#000000" d="M 223.714844 272.613281 C 221.894531 272.613281 220.171875 271.523438 219.453125 269.730469 C 218.507812 267.378906 219.648438 264.707031 222 263.761719 C 250.640625 252.253906 269.144531 224.878906 269.144531 194.019531 C 269.144531 192.800781 269.625 191.632812 270.488281 190.773438 C 271.347656 189.914062 272.515625 189.429688 273.734375 189.429688 L 294.261719 189.429688 C 296.796875 189.429688 298.851562 191.484375 298.851562 194.019531 C 298.851562 196.554688 296.796875 198.609375 294.261719 198.609375 L 278.203125 198.609375 C 277.371094 214.117188 272.332031 228.953125 263.5 241.777344 C 254.027344 255.53125 240.863281 266.078125 225.425781 272.28125 C 224.863281 272.507812 224.285156 272.613281 223.714844 272.613281 Z M 223.714844 272.613281 " fill-opacity="1" fill-rule="nonzero"/><path fill="#000000" d="M 194.019531 324.011719 C 184.550781 324.011719 176.847656 316.308594 176.847656 306.839844 C 176.847656 297.375 184.550781 289.671875 194.019531 289.671875 C 203.488281 289.671875 211.191406 297.375 211.191406 306.839844 C 211.191406 316.308594 203.488281 324.011719 194.019531 324.011719 Z M 194.019531 298.851562 C 189.613281 298.851562 186.03125 302.4375 186.03125 306.839844 C 186.03125 311.246094 189.613281 314.828125 194.019531 314.828125 C 198.425781 314.828125 202.007812 311.246094 202.007812 306.839844 C 202.007812 302.4375 198.425781 298.851562 194.019531 298.851562 Z M 194.019531 298.851562 " fill-opacity="1" fill-rule="nonzero"/><path fill="#000000" d="M 194.019531 298.851562 C 191.484375 298.851562 189.429688 296.796875 189.429688 294.261719 L 189.429688 278.203125 C 173.921875 277.371094 159.085938 272.332031 146.257812 263.5 C 132.507812 254.03125 121.960938 240.863281 115.757812 225.425781 C 114.8125 223.070312 115.953125 220.398438 118.308594 219.453125 C 120.660156 218.507812 123.332031 219.648438 124.277344 222.003906 C 135.785156 250.640625 163.160156 269.144531 194.019531 269.144531 C 195.234375 269.144531 196.402344 269.628906 197.265625 270.488281 C 198.125 271.351562 198.609375 272.519531 198.609375 273.734375 L 198.609375 294.261719 C 198.609375 296.796875 196.554688 298.851562 194.019531 298.851562 Z M 194.019531 298.851562 " fill-opacity="1" fill-rule="nonzero"/><path fill="#000000" d="M 81.195312 211.191406 C 71.726562 211.191406 64.027344 203.488281 64.027344 194.019531 C 64.027344 184.550781 71.726562 176.847656 81.195312 176.847656 C 90.664062 176.847656 98.367188 184.550781 98.367188 194.019531 C 98.367188 203.488281 90.664062 211.191406 81.195312 211.191406 Z M 81.195312 186.03125 C 76.792969 186.03125 73.207031 189.613281 73.207031 194.019531 C 73.207031 198.425781 76.792969 202.007812 81.195312 202.007812 C 85.601562 202.007812 89.183594 198.425781 89.183594 194.019531 C 89.1875 189.613281 85.601562 186.03125 81.195312 186.03125 Z M 81.195312 186.03125 " fill-opacity="1" fill-rule="nonzero"/><path fill="#000000" d="M 114.304688 198.609375 L 93.777344 198.609375 C 91.242188 198.609375 89.183594 196.554688 89.183594 194.019531 C 89.183594 191.484375 91.242188 189.429688 93.777344 189.429688 L 109.835938 189.429688 C 110.667969 173.921875 115.707031 159.082031 124.539062 146.257812 C 134.007812 132.507812 147.175781 121.960938 162.613281 115.757812 C 164.964844 114.8125 167.640625 115.953125 168.585938 118.308594 C 169.527344 120.660156 168.386719 123.332031 166.035156 124.277344 C 137.394531 135.785156 118.890625 163.160156 118.894531 194.019531 C 118.894531 195.238281 118.410156 196.40625 117.550781 197.265625 C 116.691406 198.128906 115.523438 198.609375 114.304688 198.609375 Z M 114.304688 198.609375 " fill-opacity="1" fill-rule="nonzero"/><path fill="#000000" d="M 170.136719 235.980469 C 169.285156 235.980469 168.425781 235.742188 167.664062 235.257812 C 161.730469 231.457031 156.582031 226.308594 152.785156 220.375 C 151.621094 218.558594 151.878906 216.179688 153.402344 214.652344 L 177.394531 190.664062 C 173.671875 179.441406 176.558594 166.792969 185.027344 158.324219 C 191.527344 151.824219 206.96875 145.535156 216.371094 150.480469 C 217.660156 151.160156 218.554688 152.410156 218.773438 153.855469 C 218.992188 155.296875 218.511719 156.757812 217.480469 157.789062 L 203.425781 171.851562 L 206.125 181.921875 L 216.195312 184.621094 L 230.25 170.558594 C 231.28125 169.527344 232.738281 169.050781 234.183594 169.265625 C 235.628906 169.484375 236.878906 170.378906 237.558594 171.667969 C 242.503906 181.070312 236.214844 196.511719 229.71875 203.011719 C 221.246094 211.480469 208.597656 214.367188 197.375 210.644531 L 173.386719 234.636719 C 172.5 235.523438 171.324219 235.980469 170.136719 235.980469 Z M 162.632812 218.410156 C 164.664062 221.015625 167.023438 223.375 169.628906 225.40625 L 193 202.035156 C 194.351562 200.683594 196.394531 200.3125 198.136719 201.097656 C 206.585938 204.914062 216.667969 203.074219 223.222656 196.515625 C 225.894531 193.847656 228.359375 188.890625 229.492188 184.304688 L 220.816406 192.988281 C 219.65625 194.148438 217.964844 194.601562 216.378906 194.175781 L 201.1875 190.105469 C 199.605469 189.679688 198.367188 188.445312 197.941406 186.859375 L 193.871094 171.667969 C 193.449219 170.082031 193.902344 168.394531 195.058594 167.234375 L 203.746094 158.542969 C 199.160156 159.675781 194.195312 162.140625 191.519531 164.8125 C 184.964844 171.371094 183.125 181.453125 186.941406 189.902344 C 187.726562 191.640625 187.351562 193.6875 186.003906 195.039062 Z M 162.632812 218.410156 " fill-opacity="1" fill-rule="nonzero"/></svg>