<svg xmlns="http://www.w3.org/2000/svg" xmlns:xlink="http://www.w3.org/1999/xlink" width="500" zoomAndPan="magnify" viewBox="0 0 375 374.999991" height="500" preserveAspectRatio="xMidYMid meet" version="1.0"><defs><clipPath id="1da62ff299"><path d="M 42.152344 42.152344 L 333.152344 42.152344 L 333.152344 333.152344 L 42.152344 333.152344 Z M 42.152344 42.152344 " clip-rule="nonzero"/></clipPath></defs><path fill="#100f0d" d="M 220.015625 139.464844 C 221.648438 138.796875 223.402344 138.328125 225.230469 138.101562 C 224.792969 135.003906 224.597656 131.875 224.640625 128.761719 C 224.640625 128.488281 224.851562 128.246094 225.140625 128.230469 C 229.28125 127.882812 233.183594 127.066406 236.734375 125.8125 C 240.527344 124.46875 244.097656 122.546875 247.285156 120.128906 C 247.480469 119.980469 247.632812 119.902344 247.800781 119.902344 C 247.8125 119.902344 247.828125 119.902344 247.84375 119.902344 L 247.800781 120.386719 L 248.027344 173.957031 C 247.4375 173.941406 246.863281 173.699219 246.152344 173.230469 C 244.972656 172.445312 243.839844 171.613281 242.75 170.753906 C 241.527344 172.1875 240.105469 173.445312 238.519531 174.472656 C 239.925781 175.652344 241.390625 176.738281 242.902344 177.722656 C 244.367188 178.6875 245.984375 179.582031 247.800781 179.703125 C 247.921875 179.703125 248.027344 179.703125 248.148438 179.703125 C 250.21875 179.703125 252.105469 178.6875 253.859375 177.570312 C 257.019531 175.574219 259.90625 173.292969 262.445312 170.8125 C 265.152344 168.152344 267.480469 165.234375 269.339844 162.136719 C 274.054688 154.335938 276.503906 144.4375 276.65625 132.691406 C 276.671875 131.679688 276.65625 130.636719 276.640625 129.59375 C 276.609375 128.230469 276.535156 126.902344 276.019531 125.664062 C 275.265625 123.894531 273.664062 122.867188 271.378906 122.667969 C 268.976562 122.472656 266.996094 122.1875 265.136719 121.746094 C 260.933594 120.75 256.960938 119.058594 253.300781 116.714844 C 253.179688 116.625 253.042969 116.53125 252.910156 116.457031 C 251.335938 115.429688 249.539062 114.265625 247.511719 114.371094 C 245.699219 114.460938 244.21875 115.488281 242.78125 116.488281 C 242.628906 116.578125 242.492188 116.683594 242.34375 116.789062 C 237.65625 119.992188 232.230469 121.929688 226.667969 122.382812 L 226.652344 122.382812 C 225.503906 122.472656 224.203125 122.578125 223.023438 122.941406 C 221.574219 123.394531 220.574219 124.167969 220 125.316406 C 219.515625 126.28125 219.441406 127.386719 219.410156 128.445312 C 219.304688 132.164062 219.515625 135.867188 220.015625 139.464844 " fill-opacity="1" fill-rule="nonzero"/><path fill="#100f0d" d="M 238.246094 152.976562 C 238.199219 153.25 237.988281 153.460938 237.808594 153.65625 C 233.816406 157.632812 229.839844 161.625 225.867188 165.613281 C 225.519531 165.945312 225.09375 166.324219 224.625 166.21875 C 224.371094 166.15625 224.171875 165.960938 223.976562 165.765625 C 221.832031 163.617188 219.683594 161.472656 217.539062 159.324219 C 217.296875 159.070312 217.023438 158.78125 217.023438 158.433594 C 217.023438 158.085938 217.28125 157.800781 217.539062 157.558594 C 218.1875 156.90625 218.820312 156.242188 219.472656 155.59375 C 219.730469 155.335938 220.03125 155.046875 220.394531 155.03125 C 220.800781 155.019531 221.148438 155.335938 221.4375 155.605469 C 222.570312 156.757812 223.703125 157.890625 224.839844 159.039062 C 227.863281 156.015625 230.871094 152.992188 233.878906 149.984375 C 234.132812 149.726562 234.4375 149.441406 234.800781 149.425781 C 235.191406 149.410156 235.523438 149.726562 235.8125 150.015625 C 236.445312 150.648438 237.066406 151.285156 237.703125 151.917969 C 237.988281 152.207031 238.304688 152.570312 238.246094 152.976562 Z M 227.632812 142.5 C 219.167969 142.5 212.308594 149.363281 212.308594 157.828125 C 212.308594 166.292969 219.167969 173.171875 227.632812 173.171875 C 236.113281 173.171875 242.976562 166.292969 242.976562 157.828125 C 242.976562 149.363281 236.113281 142.5 227.632812 142.5 " fill-opacity="1" fill-rule="nonzero"/><path fill="#100f0d" d="M 284.214844 132.78125 C 284.230469 131.679688 284.230469 130.546875 284.199219 129.410156 C 284.199219 129.335938 284.199219 129.246094 284.199219 129.167969 C 286.890625 130.863281 288.6875 133.871094 288.6875 137.273438 L 288.6875 148.652344 L 282.535156 148.652344 C 283.578125 143.726562 284.152344 138.433594 284.214844 132.78125 " fill-opacity="1" fill-rule="nonzero"/><path fill="#100f0d" d="M 96.171875 127.71875 L 210.976562 127.71875 C 210.976562 127.882812 210.960938 128.050781 210.960938 128.203125 C 210.839844 132.296875 211.066406 136.410156 211.625 140.414062 C 211.308594 140.6875 210.992188 140.988281 210.703125 141.292969 C 208.574219 143.421875 206.894531 145.902344 205.714844 148.652344 L 86.617188 148.652344 L 86.617188 137.273438 C 86.617188 132.011719 90.910156 127.71875 96.171875 127.71875 " fill-opacity="1" fill-rule="nonzero"/><path fill="#100f0d" d="M 141.671875 210.476562 L 125.480469 210.476562 L 125.480469 205.339844 L 141.671875 205.339844 L 141.671875 210.476562 " fill-opacity="1" fill-rule="nonzero"/><path fill="#100f0d" d="M 141.671875 212.789062 C 141.671875 215.238281 139.675781 217.234375 137.226562 217.234375 L 125.480469 217.234375 L 125.480469 212.59375 L 141.671875 212.59375 L 141.671875 212.789062 " fill-opacity="1" fill-rule="nonzero"/><path fill="#100f0d" d="M 109.382812 188.863281 L 123.351562 188.863281 L 123.351562 195.164062 L 104.9375 195.164062 L 104.9375 193.304688 C 104.9375 190.859375 106.933594 188.863281 109.382812 188.863281 " fill-opacity="1" fill-rule="nonzero"/><path fill="#100f0d" d="M 123.351562 203.222656 L 104.9375 203.222656 L 104.9375 197.28125 L 123.351562 197.28125 L 123.351562 203.222656 " fill-opacity="1" fill-rule="nonzero"/><path fill="#100f0d" d="M 134.398438 188.863281 L 137.226562 188.863281 C 139.675781 188.863281 141.671875 190.859375 141.671875 193.304688 L 141.671875 203.222656 L 134.398438 203.222656 L 134.398438 188.863281 " fill-opacity="1" fill-rule="nonzero"/><path fill="#100f0d" d="M 132.269531 203.222656 L 125.480469 203.222656 L 125.480469 188.863281 L 132.269531 188.863281 L 132.269531 203.222656 " fill-opacity="1" fill-rule="nonzero"/><path fill="#100f0d" d="M 123.351562 217.234375 L 115.914062 217.234375 L 115.914062 205.339844 L 123.351562 205.339844 L 123.351562 217.234375 " fill-opacity="1" fill-rule="nonzero"/><path fill="#100f0d" d="M 113.78125 217.234375 L 109.382812 217.234375 C 106.933594 217.234375 104.9375 215.238281 104.9375 212.789062 L 104.9375 205.339844 L 113.78125 205.339844 L 113.78125 217.234375 " fill-opacity="1" fill-rule="nonzero"/><path fill="#100f0d" d="M 103.183594 191.402344 C 103.183594 189.074219 105.089844 187.167969 107.417969 187.167969 L 139.191406 187.167969 C 141.519531 187.167969 143.421875 189.074219 143.421875 191.402344 L 143.421875 214.621094 C 143.421875 216.960938 141.519531 218.867188 139.191406 218.867188 L 107.417969 218.867188 C 105.089844 218.867188 103.183594 216.960938 103.183594 214.621094 Z M 166.445312 193.578125 C 166.445312 193.125 166.808594 192.761719 167.261719 192.761719 L 211.292969 192.761719 C 211.746094 192.761719 212.109375 193.125 212.109375 193.578125 L 212.109375 199.324219 C 212.109375 199.777344 211.746094 200.140625 211.292969 200.140625 L 167.261719 200.140625 C 166.808594 200.140625 166.445312 199.777344 166.445312 199.324219 Z M 166.445312 225.683594 C 166.445312 225.230469 166.808594 224.867188 167.261719 224.867188 L 211.292969 224.867188 C 211.746094 224.867188 212.109375 225.230469 212.109375 225.683594 L 212.109375 231.761719 C 212.109375 232.214844 211.746094 232.578125 211.292969 232.578125 L 167.261719 232.578125 C 166.808594 232.578125 166.445312 232.214844 166.445312 231.761719 Z M 223.417969 193.578125 C 223.417969 193.125 223.796875 192.761719 224.234375 192.761719 L 268.28125 192.761719 C 268.71875 192.761719 269.082031 193.125 269.082031 193.578125 L 269.082031 199.324219 C 269.082031 199.777344 268.71875 200.140625 268.28125 200.140625 L 224.234375 200.140625 C 223.796875 200.140625 223.417969 199.777344 223.417969 199.324219 Z M 223.417969 225.683594 C 223.417969 225.230469 223.796875 224.867188 224.234375 224.867188 L 268.28125 224.867188 C 268.71875 224.867188 269.082031 225.230469 269.082031 225.683594 L 269.082031 231.761719 C 269.082031 232.214844 268.71875 232.578125 268.28125 232.578125 L 224.234375 232.578125 C 223.796875 232.578125 223.417969 232.214844 223.417969 231.761719 Z M 86.617188 171.960938 L 86.617188 239.757812 C 86.617188 245.019531 90.910156 249.3125 96.171875 249.3125 L 279.132812 249.3125 C 284.394531 249.3125 288.6875 245.019531 288.6875 239.757812 L 288.6875 171.960938 L 271.742188 171.960938 C 270.472656 173.535156 269.082031 175.046875 267.617188 176.496094 C 264.683594 179.382812 261.34375 182 257.714844 184.3125 C 255.234375 185.882812 251.867188 187.683594 247.707031 187.683594 C 247.4375 187.683594 247.164062 187.683594 246.878906 187.667969 C 243.171875 187.441406 240.226562 185.808594 238.078125 184.402344 C 236.3125 183.253906 234.574219 181.96875 232.925781 180.59375 L 232.789062 180.472656 C 230.976562 180.925781 229.117188 181.152344 227.210938 181.152344 C 224.050781 181.152344 221 180.535156 218.113281 179.308594 C 215.332031 178.128906 212.835938 176.453125 210.703125 174.304688 C 209.949219 173.566406 209.269531 172.777344 208.632812 171.960938 L 86.617188 171.960938 " fill-opacity="1" fill-rule="nonzero"/><g clip-path="url(#1da62ff299)"><path fill="#100f0d" d="M 187.683594 326.113281 C 111.179688 326.113281 49.191406 264.125 49.191406 187.621094 C 49.191406 111.179688 111.179688 49.191406 187.683594 49.191406 C 264.15625 49.191406 326.113281 111.179688 326.113281 187.621094 C 326.113281 264.125 264.15625 326.113281 187.683594 326.113281 Z M 187.699219 42.238281 C 107.34375 42.238281 42.238281 107.34375 42.238281 187.609375 C 42.238281 267.964844 107.34375 333.066406 187.699219 333.066406 C 267.996094 333.066406 333.066406 267.964844 333.066406 187.609375 C 333.066406 107.34375 267.996094 42.238281 187.699219 42.238281 " fill-opacity="1" fill-rule="nonzero"/></g></svg>