<svg xmlns="http://www.w3.org/2000/svg" xmlns:xlink="http://www.w3.org/1999/xlink" width="500" zoomAndPan="magnify" viewBox="0 0 375 149.999998" height="200" preserveAspectRatio="xMidYMid meet" version="1.0"><defs><g/><clipPath id="9b397f6e87"><path d="M 146.480469 44.277344 L 209.480469 44.277344 L 209.480469 108.777344 L 146.480469 108.777344 Z M 146.480469 44.277344 " clip-rule="nonzero"/></clipPath></defs><g fill="#000000" fill-opacity="1"><g transform="translate(61.547819, 97.499996)"><g><path d="M 66.75 -38.265625 L 66.75 -23.4375 C 64.976562 -15.320312 61.109375 -9.175781 55.140625 -5 C 49.179688 -0.832031 42.535156 1.25 35.203125 1.25 C 25.972656 1.25 18.113281 -2.203125 11.625 -9.109375 C 5.144531 -16.015625 1.90625 -24.351562 1.90625 -34.125 C 1.90625 -44.0625 5.078125 -52.453125 11.421875 -59.296875 C 17.773438 -66.140625 25.703125 -69.5625 35.203125 -69.5625 C 46.296875 -69.5625 55.070312 -65.671875 61.53125 -57.890625 L 51.34375 -46.703125 C 47.695312 -52.554688 42.617188 -55.484375 36.109375 -55.484375 C 31.304688 -55.484375 27.207031 -53.398438 23.8125 -49.234375 C 20.414062 -45.066406 18.71875 -40.03125 18.71875 -34.125 C 18.71875 -28.320312 20.414062 -23.363281 23.8125 -19.25 C 27.207031 -15.132812 31.304688 -13.078125 36.109375 -13.078125 C 40.078125 -13.078125 43.539062 -14.28125 46.5 -16.6875 C 49.457031 -19.09375 50.9375 -22.28125 50.9375 -26.25 L 35.203125 -26.25 L 35.203125 -38.265625 Z M 66.75 -38.265625 "/></g></g></g><g fill="#000000" fill-opacity="1"><g transform="translate(123.733329, 97.499996)"><g><path d="M 4.96875 0 L 4.96875 -42.484375 L 19.625 -42.484375 L 19.625 -36.359375 L 19.796875 -36.359375 C 19.898438 -36.578125 20.078125 -36.851562 20.328125 -37.1875 C 20.578125 -37.519531 21.113281 -38.097656 21.9375 -38.921875 C 22.769531 -39.753906 23.65625 -40.5 24.59375 -41.15625 C 25.53125 -41.820312 26.742188 -42.414062 28.234375 -42.9375 C 29.722656 -43.457031 31.242188 -43.71875 32.796875 -43.71875 C 34.398438 -43.71875 35.972656 -43.5 37.515625 -43.0625 C 39.054688 -42.625 40.1875 -42.179688 40.90625 -41.734375 L 42.0625 -41.078125 L 35.9375 -28.65625 C 34.113281 -30.195312 31.578125 -30.96875 28.328125 -30.96875 C 26.554688 -30.96875 25.035156 -30.582031 23.765625 -29.8125 C 22.492188 -29.039062 21.597656 -28.101562 21.078125 -27 C 20.554688 -25.894531 20.179688 -24.953125 19.953125 -24.171875 C 19.734375 -23.398438 19.625 -22.796875 19.625 -22.359375 L 19.625 0 Z M 4.96875 0 "/></g></g></g><g fill="#000000" fill-opacity="1"><g transform="translate(158.510514, 97.499996)"><g><path d="M 7.859375 -5.25 C 3.890625 -9.59375 1.90625 -14.910156 1.90625 -21.203125 C 1.90625 -27.492188 3.890625 -32.816406 7.859375 -37.171875 C 11.835938 -41.535156 16.890625 -43.71875 23.015625 -43.71875 C 28.648438 -43.71875 33.289062 -41.953125 36.9375 -38.421875 L 36.9375 -42.484375 L 51.59375 -42.484375 L 51.59375 0 L 37.09375 0 L 37.09375 -4.796875 L 36.9375 -4.796875 C 33.289062 -0.765625 28.648438 1.25 23.015625 1.25 C 16.890625 1.25 11.835938 -0.914062 7.859375 -5.25 Z M 20.328125 -28.40625 C 18.421875 -26.53125 17.46875 -24.128906 17.46875 -21.203125 C 17.46875 -18.273438 18.378906 -15.882812 20.203125 -14.03125 C 22.023438 -12.1875 24.425781 -11.265625 27.40625 -11.265625 C 30.28125 -11.265625 32.640625 -12.203125 34.484375 -14.078125 C 36.335938 -15.953125 37.265625 -18.328125 37.265625 -21.203125 C 37.265625 -24.128906 36.3125 -26.53125 34.40625 -28.40625 C 32.5 -30.28125 30.164062 -31.21875 27.40625 -31.21875 C 24.59375 -31.21875 22.234375 -30.28125 20.328125 -28.40625 Z M 20.328125 -28.40625 "/></g></g></g><g fill="#000000" fill-opacity="1"><g transform="translate(208.606554, 97.499996)"><g><path d="M 48.6875 -37.21875 C 52.664062 -32.882812 54.65625 -27.570312 54.65625 -21.28125 C 54.65625 -14.988281 52.664062 -9.660156 48.6875 -5.296875 C 44.71875 -0.929688 39.671875 1.25 33.546875 1.25 C 27.910156 1.25 23.269531 -0.519531 19.625 -4.0625 L 19.625 21.53125 L 4.96875 21.53125 L 4.96875 -42.484375 L 19.46875 -42.484375 L 19.46875 -37.6875 L 19.625 -37.6875 C 23.269531 -41.707031 27.910156 -43.71875 33.546875 -43.71875 C 39.671875 -43.71875 44.71875 -41.550781 48.6875 -37.21875 Z M 36.234375 -14.078125 C 38.140625 -15.953125 39.09375 -18.351562 39.09375 -21.28125 C 39.09375 -24.207031 38.179688 -26.59375 36.359375 -28.4375 C 34.535156 -30.289062 32.132812 -31.21875 29.15625 -31.21875 C 26.28125 -31.21875 23.914062 -30.28125 22.0625 -28.40625 C 20.21875 -26.53125 19.296875 -24.15625 19.296875 -21.28125 C 19.296875 -18.351562 20.25 -15.953125 22.15625 -14.078125 C 24.0625 -12.203125 26.394531 -11.265625 29.15625 -11.265625 C 31.96875 -11.265625 34.328125 -12.203125 36.234375 -14.078125 Z M 36.234375 -14.078125 "/></g></g></g><g fill="#000000" fill-opacity="1"><g transform="translate(258.702594, 97.499996)"><g><path d="M 4.96875 0 L 4.96875 -71.21875 L 19.625 -71.21875 L 19.625 -38.015625 L 19.796875 -38.015625 C 23.597656 -41.816406 27.65625 -43.71875 31.96875 -43.71875 C 34.0625 -43.71875 36.144531 -43.441406 38.21875 -42.890625 C 40.289062 -42.335938 42.273438 -41.484375 44.171875 -40.328125 C 46.078125 -39.171875 47.625 -37.53125 48.8125 -35.40625 C 50 -33.28125 50.59375 -30.804688 50.59375 -27.984375 L 50.59375 0 L 35.9375 0 L 35.9375 -24.015625 C 35.9375 -26.222656 35.234375 -28.15625 33.828125 -29.8125 C 32.421875 -31.46875 30.585938 -32.296875 28.328125 -32.296875 C 26.117188 -32.296875 24.113281 -31.4375 22.3125 -29.71875 C 20.519531 -28.007812 19.625 -26.109375 19.625 -24.015625 L 19.625 0 Z M 4.96875 0 "/></g></g></g><g clip-path="url(#9b397f6e87)"><path fill="#e4e1da" d="M 209.21875 75.996094 L 199.964844 75.996094 C 184.125 72.570312 180.605469 69.035156 177.175781 53.171875 L 177.175781 44.28125 L 176.003906 44.28125 L 176.003906 53.265625 C 172.585938 69.046875 169.046875 72.578125 153.238281 75.996094 L 146.488281 75.996094 L 146.488281 77.167969 L 153.238281 77.167969 C 169.046875 80.589844 172.585938 84.117188 176.003906 99.898438 L 176.003906 108.71875 L 177.175781 108.71875 L 177.175781 99.992188 C 180.605469 84.128906 184.125 80.59375 199.964844 77.167969 L 209.21875 77.167969 Z M 209.21875 75.996094 " fill-opacity="1" fill-rule="nonzero"/></g><g fill="#000000" fill-opacity="1"><g transform="translate(164.39349, 119.462933)"><g><path d="M 1.078125 -8.046875 L 2.875 -8.046875 C 3.25 -8.046875 3.59375 -7.992188 3.90625 -7.890625 C 4.21875 -7.785156 4.484375 -7.632812 4.703125 -7.4375 C 4.929688 -7.25 5.109375 -7.023438 5.234375 -6.765625 C 5.359375 -6.515625 5.421875 -6.238281 5.421875 -5.9375 C 5.421875 -5.570312 5.328125 -5.242188 5.140625 -4.953125 C 4.960938 -4.671875 4.707031 -4.4375 4.375 -4.25 C 4.832031 -4.082031 5.195312 -3.820312 5.46875 -3.46875 C 5.738281 -3.125 5.875 -2.71875 5.875 -2.25 C 5.875 -1.925781 5.804688 -1.628906 5.671875 -1.359375 C 5.535156 -1.085938 5.34375 -0.847656 5.09375 -0.640625 C 4.851562 -0.441406 4.5625 -0.285156 4.21875 -0.171875 C 3.882812 -0.0546875 3.519531 0 3.125 0 L 1.078125 0 Z M 3.125 -0.78125 C 3.695312 -0.78125 4.160156 -0.914062 4.515625 -1.1875 C 4.867188 -1.46875 5.046875 -1.835938 5.046875 -2.296875 C 5.046875 -2.753906 4.867188 -3.117188 4.515625 -3.390625 C 4.160156 -3.671875 3.695312 -3.8125 3.125 -3.8125 L 1.921875 -3.8125 L 1.921875 -0.78125 Z M 2.875 -4.5625 C 3.394531 -4.5625 3.804688 -4.679688 4.109375 -4.921875 C 4.421875 -5.160156 4.578125 -5.484375 4.578125 -5.890625 C 4.578125 -6.304688 4.421875 -6.640625 4.109375 -6.890625 C 3.796875 -7.140625 3.382812 -7.265625 2.875 -7.265625 L 1.921875 -7.265625 L 1.921875 -4.5625 Z M 2.875 -4.5625 "/></g></g></g><g fill="#000000" fill-opacity="1"><g transform="translate(174.593639, 119.462933)"><g><path d="M 3.90625 0.125 C 3.476562 0.125 3.085938 0.0390625 2.734375 -0.125 C 2.378906 -0.289062 2.070312 -0.519531 1.8125 -0.8125 C 1.5625 -1.113281 1.363281 -1.472656 1.21875 -1.890625 C 1.082031 -2.304688 1.015625 -2.765625 1.015625 -3.265625 L 1.015625 -8.046875 L 1.859375 -8.046875 L 1.859375 -3.34375 C 1.859375 -2.9375 1.90625 -2.566406 2 -2.234375 C 2.101562 -1.898438 2.25 -1.617188 2.4375 -1.390625 C 2.625 -1.160156 2.84375 -0.976562 3.09375 -0.84375 C 3.351562 -0.71875 3.644531 -0.65625 3.96875 -0.65625 C 4.289062 -0.65625 4.582031 -0.71875 4.84375 -0.84375 C 5.101562 -0.976562 5.320312 -1.160156 5.5 -1.390625 C 5.6875 -1.617188 5.828125 -1.898438 5.921875 -2.234375 C 6.023438 -2.566406 6.078125 -2.9375 6.078125 -3.34375 L 6.078125 -8.046875 L 6.90625 -8.046875 L 6.90625 -3.265625 C 6.90625 -2.765625 6.828125 -2.304688 6.671875 -1.890625 C 6.523438 -1.472656 6.316406 -1.113281 6.046875 -0.8125 C 5.785156 -0.519531 5.472656 -0.289062 5.109375 -0.125 C 4.742188 0.0390625 4.34375 0.125 3.90625 0.125 Z M 3.90625 0.125 "/></g></g></g><g fill="#000000" fill-opacity="1"><g transform="translate(186.113794, 119.462933)"><g><path d="M 1.078125 -8.046875 L 1.921875 -8.046875 L 1.921875 0 L 1.078125 0 Z M 1.078125 -8.046875 "/></g></g></g><g fill="#000000" fill-opacity="1"><g transform="translate(192.713942, 119.462933)"><g><path d="M 1.078125 -8.046875 L 1.921875 -8.046875 L 1.921875 -0.78125 L 5.15625 -0.78125 L 5.15625 0 L 1.078125 0 Z M 1.078125 -8.046875 "/></g></g></g><g fill="#000000" fill-opacity="1"><g transform="translate(202.014092, 119.462933)"><g><path d="M 1.078125 -8.046875 L 3.703125 -8.046875 C 4.316406 -8.046875 4.882812 -7.941406 5.40625 -7.734375 C 5.925781 -7.535156 6.375 -7.253906 6.75 -6.890625 C 7.132812 -6.535156 7.4375 -6.113281 7.65625 -5.625 C 7.875 -5.132812 7.984375 -4.597656 7.984375 -4.015625 C 7.984375 -3.441406 7.875 -2.910156 7.65625 -2.421875 C 7.4375 -1.929688 7.132812 -1.503906 6.75 -1.140625 C 6.375 -0.785156 5.925781 -0.503906 5.40625 -0.296875 C 4.882812 -0.0976562 4.316406 0 3.703125 0 L 1.078125 0 Z M 3.703125 -0.78125 C 4.179688 -0.78125 4.628906 -0.859375 5.046875 -1.015625 C 5.460938 -1.179688 5.820312 -1.40625 6.125 -1.6875 C 6.425781 -1.976562 6.660156 -2.320312 6.828125 -2.71875 C 6.992188 -3.113281 7.078125 -3.546875 7.078125 -4.015625 C 7.078125 -4.492188 6.992188 -4.929688 6.828125 -5.328125 C 6.660156 -5.722656 6.425781 -6.0625 6.125 -6.34375 C 5.820312 -6.632812 5.460938 -6.859375 5.046875 -7.015625 C 4.628906 -7.179688 4.179688 -7.265625 3.703125 -7.265625 L 1.921875 -7.265625 L 1.921875 -0.78125 Z M 3.703125 -0.78125 "/></g></g></g></svg>